<svg width="70" height="70" viewBox="0 0 70 70" fill="none" xmlns="http://www.w3.org/2000/svg">
<path d="M32 25H38C43 25 45 27 45 32V38C45 43 43 45 38 45H32C27 45 25 43 25 38V32C25 27 27 25 32 25Z" stroke="#E9E9E9" stroke-width="1.5" stroke-linecap="round" stroke-linejoin="round"/>
<path d="M31.5701 38.27L38.11 31.73" stroke="#E9E9E9" stroke-width="1.25" stroke-linecap="round" stroke-linejoin="round"/>
<path d="M31.98 33.37C32.6593 33.37 33.21 32.8194 33.21 32.14C33.21 31.4607 32.6593 30.91 31.98 30.91C31.3007 30.91 30.75 31.4607 30.75 32.14C30.75 32.8194 31.3007 33.37 31.98 33.37Z" stroke="#E9E9E9" stroke-width="1.25" stroke-linecap="round" stroke-linejoin="round"/>
<path d="M38.52 39.09C39.1993 39.09 39.75 38.5393 39.75 37.86C39.75 37.1807 39.1993 36.63 38.52 36.63C37.8407 36.63 37.29 37.1807 37.29 37.86C37.29 38.5393 37.8407 39.09 38.52 39.09Z" stroke="#E9E9E9" stroke-width="1.25" stroke-linecap="round" stroke-linejoin="round"/>
</svg>
