<svg width="70" height="70" viewBox="0 0 70 70" fill="none" xmlns="http://www.w3.org/2000/svg">
<g filter="url(#filter0_b_1_1778)">
<g filter="url(#filter1_b_1_1778)">
<path d="M36.8351 43.4491C36.8351 43.4487 36.835 43.4483 36.8348 43.4479L36.3105 42.5068C35.7385 41.4802 34.2617 41.4802 33.6898 42.5068L33.1651 43.4485C32.9994 43.7457 32.7266 43.9626 32.4067 44.0515C32.0867 44.1404 31.7459 44.0941 31.4589 43.9227L29.2926 42.627C29.0055 42.4552 28.796 42.1722 28.7102 41.8403C28.6245 41.5084 28.6694 41.1548 28.8351 40.8572L29.4276 39.7938C29.9847 38.794 29.2618 37.5638 28.1173 37.5638H27.0001C26.6686 37.5638 26.3507 37.4273 26.1162 37.1843C25.8818 36.9413 25.7501 36.6118 25.7501 36.2682V33.6769C25.7501 33.3333 25.8818 33.0038 26.1162 32.7608C26.3507 32.5178 26.6686 32.3813 27.0001 32.3813H28.1173C29.2618 32.3813 29.9847 31.151 29.4276 30.1512L28.8351 29.0878C28.7529 28.9404 28.6994 28.7777 28.6779 28.6089C28.6564 28.44 28.6672 28.2685 28.7096 28.104C28.7521 27.9395 28.8255 27.7853 28.9255 27.6502C29.0256 27.5151 29.1503 27.4018 29.2926 27.3167L31.4576 26.0211C31.7447 25.8493 32.0859 25.8028 32.4061 25.8917C32.7263 25.9806 32.9994 26.1977 33.1651 26.4953L33.6901 27.4379C34.2619 28.4646 35.7387 28.4648 36.3108 27.4383L36.8364 26.4953C37.0021 26.1981 37.2749 25.9812 37.5948 25.8923C37.9148 25.8034 38.2556 25.8497 38.5426 26.0211L40.7089 27.3167C40.9956 27.4885 41.2049 27.7713 41.2906 28.1029C41.3764 28.4345 41.3317 28.7878 41.1664 29.0852L40.5725 30.1513C40.0155 31.1511 40.7383 32.3813 41.8829 32.3813H43.0001C43.3316 32.3813 43.6496 32.5178 43.884 32.7608C44.1184 33.0038 44.2501 33.3333 44.2501 33.6769V36.2682C44.2501 36.6118 44.1184 36.9413 43.884 37.1843C43.6496 37.4273 43.3316 37.5638 43.0001 37.5638H41.8825C40.7381 37.5638 40.0152 38.7938 40.572 39.7936L41.1651 40.8585C41.3309 41.1561 41.3758 41.5097 41.29 41.8416C41.2042 42.1735 40.9947 42.4565 40.7076 42.6283L38.5426 43.924C38.2555 44.0958 37.9143 44.1423 37.5941 44.0534C37.2741 43.9645 37.0012 43.7476 36.8354 43.4503C36.8352 43.45 36.8351 43.4495 36.8351 43.4491V43.4491Z" stroke="#E9E9E9" stroke-width="1.25" stroke-linejoin="round"/>
<circle cx="35" cy="35" r="3.125" stroke="#E9E9E9" stroke-width="1.25"/>
</g>
</g>
<defs>
<filter id="filter0_b_1_1778" x="3" y="3" width="64" height="64" filterUnits="userSpaceOnUse" color-interpolation-filters="sRGB">
<feFlood flood-opacity="0" result="BackgroundImageFix"/>
<feGaussianBlur in="BackgroundImageFix" stdDeviation="10"/>
<feComposite in2="SourceAlpha" operator="in" result="effect1_backgroundBlur_1_1778"/>
<feBlend mode="normal" in="SourceGraphic" in2="effect1_backgroundBlur_1_1778" result="shape"/>
</filter>
<filter id="filter1_b_1_1778" x="5" y="5" width="60" height="60" filterUnits="userSpaceOnUse" color-interpolation-filters="sRGB">
<feFlood flood-opacity="0" result="BackgroundImageFix"/>
<feGaussianBlur in="BackgroundImageFix" stdDeviation="10"/>
<feComposite in2="SourceAlpha" operator="in" result="effect1_backgroundBlur_1_1778"/>
<feBlend mode="normal" in="SourceGraphic" in2="effect1_backgroundBlur_1_1778" result="shape"/>
</filter>
</defs>
</svg>
