<svg width="70" height="70" viewBox="0 0 70 70" fill="none" xmlns="http://www.w3.org/2000/svg">
<path d="M25 25H26.74C27.82 25 28.67 25.93 28.58 27L27.75 36.96C27.61 38.59 28.9 39.99 30.54 39.99H41.19C42.63 39.99 43.89 38.81 44 37.38L44.54 29.88C44.66 28.22 43.4 26.87 41.73 26.87H28.82" stroke="#E9E9E9" stroke-width="1.5" stroke-miterlimit="10" stroke-linecap="round" stroke-linejoin="round"/>
<path d="M39.25 45C39.9404 45 40.5 44.4404 40.5 43.75C40.5 43.0596 39.9404 42.5 39.25 42.5C38.5596 42.5 38 43.0596 38 43.75C38 44.4404 38.5596 45 39.25 45Z" stroke="#E9E9E9" stroke-width="1.2" stroke-miterlimit="10" stroke-linecap="round" stroke-linejoin="round"/>
<path d="M31.25 45C31.9404 45 32.5 44.4404 32.5 43.75C32.5 43.0596 31.9404 42.5 31.25 42.5C30.5596 42.5 30 43.0596 30 43.75C30 44.4404 30.5596 45 31.25 45Z" stroke="#E9E9E9" stroke-width="1.2" stroke-miterlimit="10" stroke-linecap="round" stroke-linejoin="round"/>
<path d="M32 31H44" stroke="#E9E9E9" stroke-width="1.5" stroke-miterlimit="10" stroke-linecap="round" stroke-linejoin="round"/>
</svg>
