<svg width="70" height="70" viewBox="0 0 70 70" fill="none" xmlns="http://www.w3.org/2000/svg">
<path d="M26.17 30.4399L35 35.5499L43.77 30.4699" stroke="#E9E9E9" stroke-width="1.5" stroke-linecap="round" stroke-linejoin="round"/>
<path d="M35 44.6099V35.5399" stroke="#E9E9E9" stroke-width="1.5" stroke-linecap="round" stroke-linejoin="round"/>
<path d="M32.93 25.48L27.59 28.45C26.38 29.12 25.39 30.8 25.39 32.18V37.83C25.39 39.21 26.38 40.89 27.59 41.56L32.93 44.53C34.07 45.16 35.94 45.16 37.08 44.53L42.42 41.56C43.63 40.89 44.62 39.21 44.62 37.83V32.18C44.62 30.8 43.63 29.12 42.42 28.45L37.08 25.48C35.93 24.84 34.07 24.84 32.93 25.48Z" stroke="#E9E9E9" stroke-width="1.5" stroke-linecap="round" stroke-linejoin="round"/>
<path d="M40 36.24V32.58L30.51 27.1" stroke="#E9E9E9" stroke-width="1.5" stroke-linecap="round" stroke-linejoin="round"/>
</svg>
