<svg width="70" height="70" viewBox="0 0 70 70" fill="none" xmlns="http://www.w3.org/2000/svg">
<rect x="8" y="8" width="54" height="54" rx="8" fill="#FE7720"/>
<path d="M35.1207 35.78C35.0507 35.77 34.9607 35.77 34.8807 35.78C33.1207 35.72 31.7207 34.28 31.7207 32.51C31.7207 30.7 33.1807 29.23 35.0007 29.23C36.8107 29.23 38.2807 30.7 38.2807 32.51C38.2707 34.28 36.8807 35.72 35.1207 35.78Z" stroke="white" stroke-width="1.5" stroke-linecap="round" stroke-linejoin="round"/>
<path d="M41.7398 42.3801C39.9598 44.0101 37.5998 45.0001 34.9998 45.0001C32.3998 45.0001 30.0398 44.0101 28.2598 42.3801C28.3598 41.4401 28.9598 40.5201 30.0298 39.8001C32.7698 37.9801 37.2498 37.9801 39.9698 39.8001C41.0398 40.5201 41.6398 41.4401 41.7398 42.3801Z" stroke="white" stroke-width="1.5" stroke-linecap="round" stroke-linejoin="round"/>
<path d="M35 45C40.5228 45 45 40.5228 45 35C45 29.4772 40.5228 25 35 25C29.4772 25 25 29.4772 25 35C25 40.5228 29.4772 45 35 45Z" stroke="white" stroke-width="1.5" stroke-linecap="round" stroke-linejoin="round"/>
</svg>
