<svg width="70" height="70" viewBox="0 0 70 70" fill="none" xmlns="http://www.w3.org/2000/svg">
<path d="M27.8397 33.4722C27.8397 33.4722 29.1867 32.5897 29.749 31.8612C30.4064 31.0093 31.4195 29.8921 31.4195 29.8921C31.4195 29.8921 33.2966 30.6608 34.9993 30.787C36.5409 30.9013 37.0526 30.0527 38.5792 30.2501C40.7911 30.5362 42.1593 33.4722 42.1593 33.4722" stroke="#E9E9E9" stroke-width="1.2" stroke-linecap="round" stroke-linejoin="round"/>
<path d="M42.1593 37.6573V34.7933V32.6454C42.1593 28.6911 38.9538 25.4856 34.9995 25.4856V25.4856C31.0453 25.4856 27.8397 28.6911 27.8397 32.6454V36.9413C27.8397 40.8955 31.0453 44.1011 34.9995 44.1011V44.1011" stroke="#E9E9E9" stroke-width="1.2" stroke-linecap="round"/>
<path d="M42.1603 34.7937H42.5554C43.3534 34.7937 44.0003 35.4406 44.0003 36.2386C44.0003 37.0365 43.3534 37.6834 42.5554 37.6834H42.1603V34.7937Z" fill="#E9E9E9" stroke="#E9E9E9" stroke-width="1.2" stroke-linejoin="round"/>
<path d="M27.8414 34.7937H27.4463C26.6483 34.7937 26.0015 35.4406 26.0015 36.2386C26.0015 37.0365 26.6483 37.6834 27.4463 37.6834H27.8414V34.7937Z" fill="#E9E9E9" stroke="#E9E9E9" stroke-width="1.2" stroke-linejoin="round"/>
<rect x="-0.6" y="0.6" width="1.74865" height="1.74865" rx="0.874324" transform="matrix(-1 0 0 1 35.9895 42.6267)" fill="#E9E9E9" stroke="#E9E9E9" stroke-width="1.2"/>
<circle cx="32" cy="35.1398" r="1.5" fill="#E9E9E9"/>
<circle cx="38" cy="35.1398" r="1.5" fill="#E9E9E9"/>
</svg>
