<svg width="70" height="770" viewBox="0 0 70 770" fill="none" xmlns="http://www.w3.org/2000/svg">
<path d="M33.07 25.82L26.14 31.37C25.36 31.99 24.86 33.3 25.03 34.28L26.36 42.24C26.6 43.66 27.96 44.81 29.4 44.81H40.6C42.03 44.81 43.4 43.65 43.64 42.24L44.97 34.28C45.13 33.3 44.63 31.99 43.86 31.37L36.93 25.83C35.86 24.97 34.13 24.97 33.07 25.82Z" stroke="#E9E9E9" stroke-width="1.5" stroke-linecap="round" stroke-linejoin="round"/>
<path d="M35 41V38" stroke="#E9E9E9" stroke-width="1.5" stroke-linecap="round" stroke-linejoin="round"/>
<path d="M26.17 100.44L35 105.55L43.77 100.47" stroke="#E9E9E9" stroke-width="1.5" stroke-linecap="round" stroke-linejoin="round"/>
<path d="M35 114.61V105.54" stroke="#E9E9E9" stroke-width="1.5" stroke-linecap="round" stroke-linejoin="round"/>
<path d="M32.93 95.48L27.59 98.45C26.38 99.12 25.39 100.8 25.39 102.18V107.83C25.39 109.21 26.38 110.89 27.59 111.56L32.93 114.53C34.07 115.16 35.94 115.16 37.08 114.53L42.42 111.56C43.63 110.89 44.62 109.21 44.62 107.83V102.18C44.62 100.8 43.63 99.12 42.42 98.45L37.08 95.48C35.93 94.84 34.07 94.84 32.93 95.48Z" stroke="#E9E9E9" stroke-width="1.5" stroke-linecap="round" stroke-linejoin="round"/>
<path d="M40 106.24V102.58L30.51 97.1" stroke="#E9E9E9" stroke-width="1.5" stroke-linecap="round" stroke-linejoin="round"/>
<path d="M25 165H26.74C27.82 165 28.67 165.93 28.58 167L27.75 176.96C27.61 178.59 28.9 179.99 30.54 179.99H41.19C42.63 179.99 43.89 178.81 44 177.38L44.54 169.88C44.66 168.22 43.4 166.87 41.73 166.87H28.82" stroke="#E9E9E9" stroke-width="1.5" stroke-miterlimit="10" stroke-linecap="round" stroke-linejoin="round"/>
<path d="M39.25 185C39.9404 185 40.5 184.44 40.5 183.75C40.5 183.06 39.9404 182.5 39.25 182.5C38.5596 182.5 38 183.06 38 183.75C38 184.44 38.5596 185 39.25 185Z" stroke="#E9E9E9" stroke-width="1.2" stroke-miterlimit="10" stroke-linecap="round" stroke-linejoin="round"/>
<path d="M31.25 185C31.9404 185 32.5 184.44 32.5 183.75C32.5 183.06 31.9404 182.5 31.25 182.5C30.5596 182.5 30 183.06 30 183.75C30 184.44 30.5596 185 31.25 185Z" stroke="#E9E9E9" stroke-width="1.2" stroke-miterlimit="10" stroke-linecap="round" stroke-linejoin="round"/>
<path d="M32 171H44" stroke="#E9E9E9" stroke-width="1.5" stroke-miterlimit="10" stroke-linecap="round" stroke-linejoin="round"/>
<path d="M32 235H38C43 235 45 237 45 242V248C45 253 43 255 38 255H32C27 255 25 253 25 248V242C25 237 27 235 32 235Z" stroke="#E9E9E9" stroke-width="1.5" stroke-linecap="round" stroke-linejoin="round"/>
<path d="M31.5701 248.27L38.11 241.73" stroke="#E9E9E9" stroke-width="1.25" stroke-linecap="round" stroke-linejoin="round"/>
<path d="M31.98 243.37C32.6593 243.37 33.21 242.819 33.21 242.14C33.21 241.461 32.6593 240.91 31.98 240.91C31.3007 240.91 30.75 241.461 30.75 242.14C30.75 242.819 31.3007 243.37 31.98 243.37Z" stroke="#E9E9E9" stroke-width="1.25" stroke-linecap="round" stroke-linejoin="round"/>
<path d="M38.52 249.09C39.1993 249.09 39.75 248.539 39.75 247.86C39.75 247.181 39.1993 246.63 38.52 246.63C37.8407 246.63 37.29 247.181 37.29 247.86C37.29 248.539 37.8407 249.09 38.52 249.09Z" stroke="#E9E9E9" stroke-width="1.25" stroke-linecap="round" stroke-linejoin="round"/>
<rect x="8" y="288" width="54" height="54" rx="8" fill="#FE7720"/>
<path d="M35.1207 315.78C35.0507 315.77 34.9607 315.77 34.8807 315.78C33.1207 315.72 31.7207 314.28 31.7207 312.51C31.7207 310.7 33.1807 309.23 35.0007 309.23C36.8107 309.23 38.2807 310.7 38.2807 312.51C38.2707 314.28 36.8807 315.72 35.1207 315.78Z" stroke="white" stroke-width="1.5" stroke-linecap="round" stroke-linejoin="round"/>
<path d="M41.7398 322.38C39.9598 324.01 37.5998 325 34.9998 325C32.3998 325 30.0398 324.01 28.2598 322.38C28.3598 321.44 28.9598 320.52 30.0298 319.8C32.7698 317.98 37.2498 317.98 39.9698 319.8C41.0398 320.52 41.6398 321.44 41.7398 322.38Z" stroke="white" stroke-width="1.5" stroke-linecap="round" stroke-linejoin="round"/>
<path d="M35 325C40.5228 325 45 320.523 45 315C45 309.477 40.5228 305 35 305C29.4772 305 25 309.477 25 315C25 320.523 29.4772 325 35 325Z" stroke="white" stroke-width="1.5" stroke-linecap="round" stroke-linejoin="round"/>
<path d="M33.07 375.82L26.14 381.37C25.36 381.99 24.86 383.3 25.03 384.28L26.36 392.24C26.6 393.66 27.96 394.81 29.4 394.81H40.6C42.03 394.81 43.4 393.65 43.64 392.24L44.97 384.28C45.13 383.3 44.63 381.99 43.86 381.37L36.93 375.83C35.86 374.97 34.13 374.97 33.07 375.82Z" stroke="#E9E9E9" stroke-width="1.5" stroke-linecap="round" stroke-linejoin="round"/>
<path d="M35 391V388" stroke="#E9E9E9" stroke-width="1.5" stroke-linecap="round" stroke-linejoin="round"/>
<g filter="url(#filter0_b_1_1768)">
<path d="M27.2091 454.159L27.8306 454.093C27.8042 453.847 27.7876 453.609 27.7876 453.368C27.7876 449.134 31.4726 445.625 36.0813 445.625C40.69 445.625 44.375 449.134 44.375 453.368C44.375 455.698 43.2984 457.845 41.3789 459.323C41.2034 459.459 41.1126 459.676 41.1401 459.896L41.4561 462.424C41.4561 462.424 41.4562 462.425 41.4563 462.425C41.5023 462.822 41.331 463.185 41.0023 463.398C40.839 463.503 40.6489 463.559 40.4662 463.559C40.2862 463.559 40.1107 463.513 39.9526 463.417L39.9527 463.417L39.9473 463.414L36.2141 461.199C36.1219 461.144 36.0172 461.114 35.91 461.111C35.5377 461.102 35.1737 461.076 34.8334 461.025L34.8323 461.025C34.8005 461.02 34.7764 461 34.7654 460.972C34.759 460.955 34.7594 460.944 34.7605 460.937C34.7618 460.93 34.7654 460.919 34.7777 460.905C35.4875 460.077 35.8591 459.077 35.8591 458.013C35.8591 455.37 33.5491 453.302 30.812 453.302C29.7873 453.302 28.7936 453.583 27.9514 454.136C27.9368 454.145 27.9237 454.148 27.9126 454.149C27.9022 454.15 27.8896 454.148 27.8747 454.142C27.8611 454.135 27.8496 454.125 27.8417 454.114C27.8334 454.103 27.8308 454.094 27.83 454.088L27.2091 454.159ZM27.2091 454.159C27.2371 454.401 27.3953 454.606 27.6095 454.708L41.3413 463.924C41.872 463.579 42.1513 462.983 42.0768 462.351L41.7602 459.819C43.827 458.227 45 455.9 45 453.368C45 448.751 40.9968 445 36.0813 445C31.1658 445 27.1626 448.751 27.1626 453.368C27.1626 453.638 27.1812 453.899 27.2091 454.159ZM35.513 460.051C35.4126 460.252 35.4276 460.491 35.5524 460.678C35.6742 460.86 35.8823 460.965 36.1005 460.955C36.1086 460.96 36.1168 460.965 36.1251 460.97L40.0199 463.284C40.1755 463.381 40.3536 463.428 40.537 463.412C40.7074 463.397 40.839 463.332 40.9245 463.277C41.1135 463.157 41.3683 462.873 41.3094 462.437L40.9477 459.507C40.9444 459.468 40.9613 459.438 40.9807 459.423C43.0325 457.982 44.2286 455.769 44.2286 453.349C44.2286 449.116 40.5333 445.753 36.0813 445.753C31.7962 445.753 28.211 448.876 27.9447 452.889C27.9306 453.102 28.0261 453.308 28.1981 453.434C28.3701 453.561 28.5946 453.591 28.7937 453.514C29.4227 453.27 30.1005 453.137 30.8027 453.137C33.7048 453.137 35.9963 455.349 35.9963 457.994H35.9962L35.9963 458.001C36.0044 458.715 35.8346 459.408 35.513 460.051ZM40.6807 462.223L40.6727 462.219C40.6755 462.22 40.6781 462.222 40.6807 462.223Z" stroke="#E9E9E9" stroke-width="1.25" stroke-linejoin="round"/>
<path d="M30.8111 462.693C32.3503 462.692 33.8246 462.034 34.771 460.886C35.4733 460.055 35.8564 459.058 35.8564 457.991C35.8564 455.356 33.5454 453.289 30.8093 453.289C29.7836 453.289 28.7888 453.571 27.946 454.125C26.5892 454.996 25.7622 456.434 25.7622 458C25.7622 459.507 26.5027 460.878 27.7816 461.753C27.7936 461.762 27.8017 461.772 27.807 461.784C27.8121 461.796 27.8156 461.811 27.8142 461.83L27.6106 463.412C27.5801 463.649 27.6875 463.883 27.8872 464.014C28.087 464.146 28.3442 464.151 28.5497 464.029L30.7719 462.709C30.7953 462.696 30.8086 462.693 30.8111 462.693ZM30.8111 462.693C30.8105 462.693 30.8099 462.693 30.8093 462.693C30.8108 462.693 30.8115 462.693 30.8115 462.693C30.8115 462.693 30.8113 462.693 30.8111 462.693ZM27.7433 464.272L27.7404 464.27C27.5199 464.128 27.4089 463.894 27.436 463.641L27.6214 462.214C27.6493 461.999 27.5641 461.785 27.3964 461.648C26.2788 460.738 25.625 459.396 25.625 458C25.625 456.408 26.4576 454.908 27.8775 454.003L27.8775 454.003L27.8823 454C28.7375 453.444 29.7545 453.143 30.8186 453.143C33.7207 453.143 36.0122 455.355 36.0122 458C36.0122 459.078 35.6198 460.144 34.8959 460.992L34.8958 460.992L34.8889 461C33.9585 462.128 32.5579 462.798 30.9939 462.849C30.8885 462.852 30.7856 462.882 30.6948 462.936L28.4246 464.285C28.4244 464.285 28.4242 464.285 28.4239 464.285C28.3207 464.346 28.2082 464.375 28.0908 464.375C27.9665 464.375 27.8529 464.343 27.7433 464.272Z" stroke="#E9E9E9" stroke-width="1.25" stroke-linejoin="round"/>
<path d="M32.4991 451.251H39.9982" stroke="#E9E9E9" stroke-width="1.25" stroke-linecap="round"/>
<path d="M34.9988 455.002H39.9982" stroke="#E9E9E9" stroke-width="1.25" stroke-linecap="round"/>
<path d="M28.7495 456.877H32.4991" stroke="#E9E9E9" stroke-width="1.25" stroke-linecap="round"/>
<path d="M29.9994 459.377H32.4991" stroke="#E9E9E9" stroke-width="1.25" stroke-linecap="round"/>
</g>
<path d="M27.8397 523.472C27.8397 523.472 29.1867 522.59 29.749 521.861C30.4064 521.009 31.4195 519.892 31.4195 519.892C31.4195 519.892 33.2966 520.661 34.9993 520.787C36.5409 520.901 37.0526 520.053 38.5792 520.25C40.7911 520.536 42.1593 523.472 42.1593 523.472" stroke="#E9E9E9" stroke-width="1.2" stroke-linecap="round" stroke-linejoin="round"/>
<path d="M42.1593 527.657V524.793V522.645C42.1593 518.691 38.9538 515.486 34.9995 515.486V515.486C31.0453 515.486 27.8397 518.691 27.8397 522.645V526.941C27.8397 530.896 31.0453 534.101 34.9995 534.101V534.101" stroke="#E9E9E9" stroke-width="1.2" stroke-linecap="round"/>
<path d="M42.1603 524.794H42.5554C43.3534 524.794 44.0003 525.441 44.0003 526.239C44.0003 527.037 43.3534 527.683 42.5554 527.683H42.1603V524.794Z" fill="#E9E9E9" stroke="#E9E9E9" stroke-width="1.2" stroke-linejoin="round"/>
<path d="M27.8414 524.794H27.4463C26.6483 524.794 26.0015 525.441 26.0015 526.239C26.0015 527.037 26.6483 527.683 27.4463 527.683H27.8414V524.794Z" fill="#E9E9E9" stroke="#E9E9E9" stroke-width="1.2" stroke-linejoin="round"/>
<rect x="-0.6" y="0.6" width="1.74865" height="1.74865" rx="0.874324" transform="matrix(-1 0 0 1 35.9895 532.627)" fill="#E9E9E9" stroke="#E9E9E9" stroke-width="1.2"/>
<circle cx="32" cy="525.14" r="1.5" fill="#E9E9E9"/>
<circle cx="38" cy="525.14" r="1.5" fill="#E9E9E9"/>
<path d="M32 605H38C43 605 45 603 45 598V592C45 587 43 585 38 585H32C27 585 25 587 25 592V598C25 603 27 605 32 605Z" stroke="#E9E9E9" stroke-width="1.5" stroke-linecap="round" stroke-linejoin="round"/>
<path d="M30.33 597.49L32.71 594.4C33.05 593.96 33.68 593.88 34.12 594.22L35.95 595.66C36.39 596 37.02 595.92 37.36 595.49L39.67 592.51" stroke="#E9E9E9" stroke-width="1.5" stroke-linecap="round" stroke-linejoin="round"/>
<g filter="url(#filter1_b_1_1768)">
<g filter="url(#filter2_b_1_1768)">
<path d="M36.8351 673.449C36.8351 673.449 36.835 673.448 36.8348 673.448L36.3105 672.507C35.7385 671.48 34.2617 671.48 33.6898 672.507L33.1651 673.448C32.9994 673.746 32.7266 673.963 32.4067 674.051C32.0867 674.14 31.7459 674.094 31.4589 673.923L29.2926 672.627C29.0055 672.455 28.796 672.172 28.7102 671.84C28.6245 671.508 28.6694 671.155 28.8351 670.857L29.4276 669.794C29.9847 668.794 29.2618 667.564 28.1173 667.564H27.0001C26.6686 667.564 26.3507 667.427 26.1162 667.184C25.8818 666.941 25.7501 666.612 25.7501 666.268V663.677C25.7501 663.333 25.8818 663.004 26.1162 662.761C26.3507 662.518 26.6686 662.381 27.0001 662.381H28.1173C29.2618 662.381 29.9847 661.151 29.4276 660.151L28.8351 659.088C28.7529 658.94 28.6994 658.778 28.6779 658.609C28.6564 658.44 28.6672 658.268 28.7096 658.104C28.7521 657.939 28.8255 657.785 28.9255 657.65C29.0256 657.515 29.1503 657.402 29.2926 657.317L31.4576 656.021C31.7447 655.849 32.0859 655.803 32.4061 655.892C32.7263 655.981 32.9994 656.198 33.1651 656.495L33.6901 657.438C34.2619 658.465 35.7387 658.465 36.3108 657.438L36.8364 656.495C37.0021 656.198 37.2749 655.981 37.5948 655.892C37.9148 655.803 38.2556 655.85 38.5426 656.021L40.7089 657.317C40.9956 657.489 41.2049 657.771 41.2906 658.103C41.3764 658.434 41.3317 658.788 41.1664 659.085L40.5725 660.151C40.0155 661.151 40.7383 662.381 41.8829 662.381H43.0001C43.3316 662.381 43.6496 662.518 43.884 662.761C44.1184 663.004 44.2501 663.333 44.2501 663.677V666.268C44.2501 666.612 44.1184 666.941 43.884 667.184C43.6496 667.427 43.3316 667.564 43.0001 667.564H41.8825C40.7381 667.564 40.0152 668.794 40.572 669.794L41.1651 670.859C41.3309 671.156 41.3758 671.51 41.29 671.842C41.2042 672.174 40.9947 672.457 40.7076 672.628L38.5426 673.924C38.2555 674.096 37.9143 674.142 37.5941 674.053C37.2741 673.965 37.0012 673.748 36.8354 673.45C36.8352 673.45 36.8351 673.45 36.8351 673.449V673.449Z" stroke="#E9E9E9" stroke-width="1.25" stroke-linejoin="round"/>
<circle cx="35" cy="665" r="3.125" stroke="#E9E9E9" stroke-width="1.25"/>
</g>
</g>
<path d="M40.1105 737.178L42.5638 734.724L40.1105 732.271" stroke="#E9E9E9" stroke-width="1.5" stroke-miterlimit="10" stroke-linecap="round" stroke-linejoin="round"/>
<path d="M32.75 734.724H42.4962" stroke="#E9E9E9" stroke-width="1.5" stroke-miterlimit="10" stroke-linecap="round" stroke-linejoin="round"/>
<path d="M34.6667 742.333C30.4308 742.333 27 739.458 27 734.667C27 729.875 30.4308 727 34.6667 727" stroke="#E9E9E9" stroke-width="1.5" stroke-miterlimit="10" stroke-linecap="round" stroke-linejoin="round"/>
<defs>
<filter id="filter0_b_1_1768" x="5" y="425" width="60" height="60" filterUnits="userSpaceOnUse" color-interpolation-filters="sRGB">
<feFlood flood-opacity="0" result="BackgroundImageFix"/>
<feGaussianBlur in="BackgroundImageFix" stdDeviation="10"/>
<feComposite in2="SourceAlpha" operator="in" result="effect1_backgroundBlur_1_1768"/>
<feBlend mode="normal" in="SourceGraphic" in2="effect1_backgroundBlur_1_1768" result="shape"/>
</filter>
<filter id="filter1_b_1_1768" x="3" y="633" width="64" height="64" filterUnits="userSpaceOnUse" color-interpolation-filters="sRGB">
<feFlood flood-opacity="0" result="BackgroundImageFix"/>
<feGaussianBlur in="BackgroundImageFix" stdDeviation="10"/>
<feComposite in2="SourceAlpha" operator="in" result="effect1_backgroundBlur_1_1768"/>
<feBlend mode="normal" in="SourceGraphic" in2="effect1_backgroundBlur_1_1768" result="shape"/>
</filter>
<filter id="filter2_b_1_1768" x="5" y="635" width="60" height="60" filterUnits="userSpaceOnUse" color-interpolation-filters="sRGB">
<feFlood flood-opacity="0" result="BackgroundImageFix"/>
<feGaussianBlur in="BackgroundImageFix" stdDeviation="10"/>
<feComposite in2="SourceAlpha" operator="in" result="effect1_backgroundBlur_1_1768"/>
<feBlend mode="normal" in="SourceGraphic" in2="effect1_backgroundBlur_1_1768" result="shape"/>
</filter>
</defs>
</svg>
