<svg width="70" height="70" viewBox="0 0 70 70" fill="none" xmlns="http://www.w3.org/2000/svg">
<g filter="url(#filter0_b_1_1775)">
<path d="M27.2091 34.1592L27.8306 34.0926C27.8042 33.8465 27.7876 33.6092 27.7876 33.3681C27.7876 29.1335 31.4726 25.625 36.0813 25.625C40.69 25.625 44.375 29.1335 44.375 33.3681C44.375 35.6981 43.2984 37.8452 41.3789 39.3235C41.2034 39.4586 41.1126 39.6764 41.1401 39.8962L41.4561 42.4235C41.4561 42.4242 41.4562 42.4248 41.4563 42.4255C41.5023 42.8222 41.331 43.1846 41.0023 43.3985C40.839 43.5032 40.6489 43.5592 40.4662 43.5592C40.2862 43.5592 40.1107 43.5132 39.9526 43.4172L39.9527 43.4172L39.9473 43.414L36.2141 41.1986C36.1219 41.1439 36.0172 41.1139 35.91 41.1113C35.5377 41.1024 35.1737 41.076 34.8334 41.025L34.8323 41.0248C34.8005 41.0201 34.7764 41.0003 34.7654 40.9718C34.759 40.955 34.7594 40.944 34.7605 40.9373C34.7618 40.9305 34.7654 40.9193 34.7777 40.9049C35.4875 40.0769 35.8591 39.0769 35.8591 38.0128C35.8591 35.3697 33.5491 33.3015 30.812 33.3015C29.7873 33.3015 28.7936 33.5834 27.9514 34.136C27.9368 34.1448 27.9237 34.1482 27.9126 34.149C27.9022 34.1497 27.8896 34.1484 27.8747 34.1424C27.8611 34.135 27.8496 34.1249 27.8417 34.1142C27.8334 34.103 27.8308 34.0938 27.83 34.0876L27.2091 34.1592ZM27.2091 34.1592C27.2371 34.4013 27.3953 34.6061 27.6095 34.7084L41.3413 43.9236C41.872 43.5792 42.1513 42.9835 42.0768 42.3505L41.7602 39.8186C43.827 38.2269 45 35.8999 45 33.3681C45 28.7512 40.9968 25 36.0813 25C31.1658 25 27.1626 28.7512 27.1626 33.3681C27.1626 33.638 27.1812 33.8986 27.2091 34.1592ZM35.513 40.051C35.4126 40.2519 35.4276 40.4912 35.5524 40.6779C35.6742 40.8601 35.8823 40.9649 36.1005 40.9549C36.1086 40.9603 36.1168 40.9654 36.1251 40.9703L40.0199 43.2845C40.1755 43.3807 40.3536 43.4276 40.537 43.4119C40.7074 43.3973 40.839 43.3324 40.9245 43.277C41.1135 43.1568 41.3683 42.8726 41.3094 42.437L40.9477 39.5071C40.9444 39.4678 40.9613 39.438 40.9807 39.4228C43.0325 37.9817 44.2286 35.7686 44.2286 33.3494C44.2286 29.1163 40.5333 25.7526 36.0813 25.7526C31.7962 25.7526 28.211 28.8755 27.9447 32.8892C27.9306 33.1022 28.0261 33.3077 28.1981 33.4341C28.3701 33.5606 28.5946 33.5905 28.7937 33.5136C29.4227 33.2704 30.1005 33.1367 30.8027 33.1367C33.7048 33.1367 35.9963 35.3487 35.9963 37.9942H35.9962L35.9963 38.0013C36.0044 38.7146 35.8346 39.408 35.513 40.051ZM40.6807 42.2234L40.6727 42.2186C40.6755 42.2202 40.6781 42.2218 40.6807 42.2234Z" stroke="#E9E9E9" stroke-width="1.25" stroke-linejoin="round"/>
<path d="M30.8111 42.6929C32.3503 42.6924 33.8246 42.0342 34.771 40.886C35.4733 40.0547 35.8564 39.0583 35.8564 37.9909C35.8564 35.3561 33.5454 33.2889 30.8093 33.2889C29.7836 33.2889 28.7888 33.5713 27.946 34.125C26.5892 34.9956 25.7622 36.4338 25.7622 38.0002C25.7622 39.5073 26.5027 40.8781 27.7816 41.7533C27.7936 41.762 27.8017 41.7723 27.807 41.7841C27.8121 41.7956 27.8156 41.8109 27.8142 41.8299L27.6106 43.4123C27.5801 43.6494 27.6875 43.8831 27.8872 44.0144C28.087 44.1456 28.3442 44.1515 28.5497 44.0294L30.7719 42.7093C30.7953 42.6959 30.8086 42.6933 30.8111 42.6929ZM30.8111 42.6929C30.8105 42.6929 30.8099 42.6929 30.8093 42.6929C30.8108 42.6929 30.8115 42.6928 30.8115 42.6928C30.8115 42.6928 30.8113 42.6928 30.8111 42.6929ZM27.7433 44.2717L27.7404 44.2698C27.5199 44.1278 27.4089 43.8937 27.436 43.6412L27.6214 42.2135C27.6493 41.9989 27.5641 41.7852 27.3964 41.6485C26.2788 40.7381 25.625 39.3959 25.625 38.0002C25.625 36.408 26.4576 34.9084 27.8775 34.0035L27.8775 34.0035L27.8823 34.0004C28.7375 33.4441 29.7545 33.1427 30.8186 33.1427C33.7207 33.1427 36.0122 35.3546 36.0122 38.0002C36.0122 39.0779 35.6198 40.1445 34.8959 40.9917L34.8958 40.9916L34.8889 41C33.9585 42.1279 32.5579 42.7983 30.9939 42.8487C30.8885 42.8521 30.7856 42.8822 30.6948 42.9361L28.4246 44.285C28.4244 44.2851 28.4242 44.2853 28.4239 44.2854C28.3207 44.3463 28.2082 44.375 28.0908 44.375C27.9665 44.375 27.8529 44.3432 27.7433 44.2717Z" stroke="#E9E9E9" stroke-width="1.25" stroke-linejoin="round"/>
<path d="M32.4991 31.2511H39.9982" stroke="#E9E9E9" stroke-width="1.25" stroke-linecap="round"/>
<path d="M34.9988 35.0017H39.9982" stroke="#E9E9E9" stroke-width="1.25" stroke-linecap="round"/>
<path d="M28.7495 36.8771H32.4991" stroke="#E9E9E9" stroke-width="1.25" stroke-linecap="round"/>
<path d="M29.9994 39.3774H32.4991" stroke="#E9E9E9" stroke-width="1.25" stroke-linecap="round"/>
</g>
<defs>
<filter id="filter0_b_1_1775" x="5" y="5" width="60" height="60" filterUnits="userSpaceOnUse" color-interpolation-filters="sRGB">
<feFlood flood-opacity="0" result="BackgroundImageFix"/>
<feGaussianBlur in="BackgroundImageFix" stdDeviation="10"/>
<feComposite in2="SourceAlpha" operator="in" result="effect1_backgroundBlur_1_1775"/>
<feBlend mode="normal" in="SourceGraphic" in2="effect1_backgroundBlur_1_1775" result="shape"/>
</filter>
</defs>
</svg>
